<?xml version="1.0" encoding="UTF-8" standalone="no"?>
<!DOCTYPE svg PUBLIC "-//W3C//DTD SVG 1.1//EN" "http://www.w3.org/Graphics/SVG/1.1/DTD/svg11.dtd">
<svg width="100%" height="100%" viewBox="0 0 1804 1288" version="1.1" xmlns="http://www.w3.org/2000/svg" xmlns:xlink="http://www.w3.org/1999/xlink" xml:space="preserve" xmlns:serif="http://www.serif.com/" style="fill-rule:evenodd;clip-rule:evenodd;stroke-linejoin:round;stroke-miterlimit:2;">
    <g transform="matrix(1,0,0,1,-898.434783,-1116.939092)">
        <rect x="898.435" y="1116.939" width="1803.13" height="1287.235" style="fill:rgb(235,235,235);"/>
        <g transform="matrix(0.682349,0,0,0.682349,1950.1035,1761.650587)">
            <path d="M963.548,686.191L412.591,686.191L550.33,430.748L825.809,430.748L963.548,686.191Z" style="fill:rgb(153,153,153);"/>
        </g>
        <g transform="matrix(1.023523,0,0,0.682349,1715.35182,1935.95213)">
            <path d="M963.548,686.191L412.591,686.191L550.33,430.748L825.809,430.748L963.548,686.191Z" style="fill:rgb(153,153,153);"/>
        </g>
        <g transform="matrix(1,0,0,1.166667,135.234821,-400.695456)">
            <path d="M1143.861,1622.817L1524.522,2404.174L763.2,2404.174L1143.861,1622.817Z" style="fill:rgb(153,153,153);"/>
        </g>
        <g transform="matrix(1,0,0,0.974359,515.895709,61.645726)">
            <path d="M1143.861,1622.817L1524.522,2404.174L763.2,2404.174L1143.861,1622.817Z" style="fill:rgb(153,153,153);"/>
        </g>
        <g transform="matrix(0.381577,0,0,0.371793,1983.136371,1161.716978)">
            <path d="M1143.861,1622.817L1524.522,2404.174L763.2,2404.174L1143.861,1622.817Z" style="fill:rgb(153,153,153);"/>
        </g>
        <g transform="matrix(1,0,0,1,0,70.121816)">
            <circle cx="2419.607" cy="1262.19" r="145.251" style="fill:rgb(153,153,153);"/>
        </g>
    </g>
</svg>
