<?xml version="1.0" encoding="UTF-8" standalone="no"?><!DOCTYPE svg PUBLIC "-//W3C//DTD SVG 1.1//EN" "http://www.w3.org/Graphics/SVG/1.1/DTD/svg11.dtd"><svg width="100%" height="100%" viewBox="0 0 3133 1543" version="1.1" xmlns="http://www.w3.org/2000/svg" xmlns:xlink="http://www.w3.org/1999/xlink" xml:space="preserve" xmlns:serif="http://www.serif.com/" style="fill-rule:evenodd;clip-rule:evenodd;stroke-linecap:round;stroke-linejoin:round;stroke-miterlimit:1.5;"><g><g id="rooms"><g><rect x="1731.511" y="628.126" width="267.032" height="157.207" style="fill:none;stroke:#000;stroke-width:2.61px;"/></g><g><rect x="1383.01" y="628.126" width="289.74" height="157.207" style="fill:none;stroke:#000;stroke-width:2.6px;"/></g><rect x="1672.749" y="657.548" width="58.762" height="127.787" style="fill:none;stroke:#000;stroke-width:2.61px;"/><rect x="2275.984" y="1385.793" width="250.766" height="132.036" style="fill:none;stroke:#000;stroke-width:2.61px;"/><rect x="2526.75" y="1385.793" width="117.707" height="132.036" style="fill:none;stroke:#000;stroke-width:2.61px;"/><rect x="2275.984" y="1269.621" width="72.67" height="73.694" style="fill:none;stroke:#000;stroke-width:2.61px;"/><rect x="2275.984" y="1019.879" width="125.385" height="230.295" style="fill:none;stroke:#000;stroke-width:2.61px;"/><rect x="2275.984" y="902.684" width="125.385" height="117.195" style="fill:none;stroke:#000;stroke-width:2.61px;"/><rect x="2275.984" y="777.299" width="125.385" height="125.385" style="fill:none;stroke:#000;stroke-width:2.61px;"/><rect x="2275.984" y="660.104" width="125.385" height="117.195" style="fill:none;stroke:#000;stroke-width:2.61px;"/><rect x="2287.241" y="537.281" width="114.124" height="122.826" style="fill:none;stroke:#000;stroke-width:2.61px;"/><rect x="2401.365" y="537.281" width="51.688" height="88.023" style="fill:none;stroke:#000;stroke-width:2.61px;"/><rect x="2453.056" y="537.281" width="59.365" height="122.826" style="fill:none;stroke:#000;stroke-width:2.61px;"/><rect x="2512.421" y="537.281" width="252.814" height="122.826" style="fill:none;stroke:#000;stroke-width:2.61px;"/><rect x="2595.891" y="705.137" width="52.199" height="103.378" style="fill:none;stroke:#000;stroke-width:2.61px;"/><rect x="2094.694" y="619.159" width="92.118" height="60.389" style="fill:none;stroke:#000;stroke-width:2.61px;"/><rect x="2186.812" y="580.264" width="58.342" height="38.894" style="fill:none;stroke:#000;stroke-width:2.61px;"/><rect x="2094.694" y="345.874" width="230.295" height="164.791" style="fill:none;stroke:#000;stroke-width:2.61px;"/><rect x="2324.99" y="345.874" width="199.132" height="164.791" style="fill:none;stroke:#000;stroke-width:2.61px;"/><rect x="2524.122" y="345.874" width="192.425" height="164.791" style="fill:none;stroke:#000;stroke-width:2.61px;"/><rect x="2094.694" y="244.543" width="56.859" height="47.084" style="fill:none;stroke:#000;stroke-width:2.61px;"/><rect x="2151.554" y="244.543" width="58.288" height="47.084" style="fill:none;stroke:#000;stroke-width:2.61px;"/><rect x="2209.842" y="244.543" width="56.348" height="47.084" style="fill:none;stroke:#000;stroke-width:2.61px;"/><rect x="2266.189" y="244.543" width="48.108" height="47.084" style="fill:none;stroke:#000;stroke-width:2.61px;"/><rect x="2384.92" y="244.543" width="52.199" height="57.318" style="fill:none;stroke:#000;stroke-width:2.61px;"/><rect x="2437.12" y="244.543" width="56.294" height="57.318" style="fill:none;stroke:#000;stroke-width:2.61px;"/><rect x="2493.414" y="244.543" width="55.271" height="57.318" style="fill:none;stroke:#000;stroke-width:2.61px;"/><rect x="2548.684" y="244.543" width="56.294" height="57.318" style="fill:none;stroke:#000;stroke-width:2.61px;"/><rect x="2604.979" y="244.543" width="53.223" height="57.318" style="fill:none;stroke:#000;stroke-width:2.61px;"/><rect x="826.125" y="288.556" width="266.119" height="152.507" style="fill:none;stroke:#000;stroke-width:2.61px;"/><rect x="667.099" y="116.599" width="105.426" height="110.541" style="fill:none;stroke:#000;stroke-width:2.61px;"/><rect x="772.525" y="116.599" width="108.494" height="110.541" style="fill:none;stroke:#000;stroke-width:2.61px;"/><rect x="881.019" y="116.599" width="211.225" height="110.541" style="fill:none;stroke:#000;stroke-width:2.61px;"/><rect x="1092.244" y="116.599" width="90.717" height="92.118" style="fill:none;stroke:#000;stroke-width:2.61px;"/><rect x="550.416" y="335.637" width="106.446" height="105.426" style="fill:none;stroke:#000;stroke-width:2.61px;"/><rect x="667.099" y="305.953" width="120.778" height="61.413" style="fill:none;stroke:#000;stroke-width:2.61px;"/><rect x="787.878" y="305.953" width="38.894" height="61.413" style="fill:none;stroke:#000;stroke-width:2.61px;"/><rect x="656.866" y="367.365" width="59.365" height="73.694" style="fill:none;stroke:#000;stroke-width:2.61px;"/><rect x="716.231" y="367.365" width="51.176" height="73.694" style="fill:none;stroke:#000;stroke-width:2.61px;"/><rect x="767.407" y="367.365" width="59.365" height="73.694" style="fill:none;stroke:#000;stroke-width:2.61px;"/><rect x="440.4" y="336.661" width="110.017" height="104.402" style="fill:none;stroke:#000;stroke-width:2.61px;"/><rect x="322.693" y="305.953" width="117.707" height="135.107" style="fill:none;stroke:#000;stroke-width:2.61px;"/><g><rect x="536.086" y="123.766" width="59.891" height="49.13" style="fill:none;stroke:#000;stroke-width:2.61px;"/></g><rect x="536.087" y="172.893" width="59.89" height="60.389" style="fill:none;stroke:#000;stroke-width:2.61px;"/><rect x="322.693" y="123.765" width="99.283" height="109.517" style="fill:none;stroke:#000;stroke-width:2.61px;"/><rect x="421.976" y="123.765" width="57.654" height="109.517" style="fill:none;stroke:#000;stroke-width:2.61px;"/><rect x="479.63" y="123.765" width="56.458" height="109.517" style="fill:none;stroke:#000;stroke-width:2.61px;"/><rect x="179.396" y="109.433" width="143.296" height="114.636" style="fill:none;stroke:#000;stroke-width:2.61px;"/><rect x="166.091" y="1.963" width="156.601" height="107.47" style="fill:none;stroke:#000;stroke-width:2.61px;"/><rect x="1.303" y="1.963" width="103.378" height="107.47" style="fill:none;stroke:#000;stroke-width:2.61px;"/><rect x="1.303" y="109.433" width="51.688" height="137.154" style="fill:none;stroke:#000;stroke-width:2.61px;"/><rect x="52.991" y="166.751" width="51.688" height="79.836" style="fill:none;stroke:#000;stroke-width:2.61px;"/><rect x="166.091" y="294.695" width="99.283" height="55.271" style="fill:none;stroke:#000;stroke-width:2.61px;"/><rect x="265.375" y="294.695" width="57.318" height="55.271" style="fill:none;stroke:#000;stroke-width:2.61px;"/><rect x="166.091" y="349.966" width="156.601" height="114.636" style="fill:none;stroke:#000;stroke-width:2.61px;"/><rect x="1.303" y="246.587" width="103.378" height="48.108" style="fill:none;stroke:#000;stroke-width:2.61px;"/><rect x="1.303" y="294.695" width="103.378" height="169.906" style="fill:none;stroke:#000;stroke-width:2.61px;"/><rect x="1.303" y="464.602" width="103.378" height="107.47" style="fill:none;stroke:#000;stroke-width:2.61px;"/><rect x="166.091" y="464.602" width="156.601" height="107.47" style="fill:none;stroke:#000;stroke-width:2.61px;"/><rect x="1.303" y="572.075" width="103.378" height="99.795" style="fill:none;stroke:#000;stroke-width:2.61px;"/><rect x="166.091" y="572.075" width="156.601" height="99.795" style="fill:none;stroke:#000;stroke-width:2.61px;"/><rect x="1.303" y="671.867" width="103.378" height="114.636" style="fill:none;stroke:#000;stroke-width:2.61px;"/><rect x="166.091" y="671.867" width="156.601" height="114.636" style="fill:none;stroke:#000;stroke-width:2.61px;"/><rect x="198.843" y="786.506" width="123.849" height="56.806" style="fill:none;stroke:#000;stroke-width:2.61px;"/><rect x="1179.02" y="215.883" width="60.389" height="44.013" style="fill:none;stroke:#000;stroke-width:2.61px;"/><rect x="1092.244" y="385.789" width="86.776" height="55.271" style="fill:none;stroke:#000;stroke-width:2.61px;"/><rect x="2349.602" y="1250.174" width="56.294" height="94.667" style="fill:none;stroke:#000;stroke-width:2.61px;"/><rect x="1576.735" y="1390.902" width="65.508" height="150.459" style="fill:none;stroke:#000;stroke-width:2.61px;"/><g><rect x="2111.023" y="1377.443" width="50.152" height="120.928" style="fill:#3c85ff;stroke:#000;stroke-width:2.61px;"/></g><rect x="1642.243" y="1390.902" width="71.647" height="75.23" style="fill:none;stroke:#000;stroke-width:2.61px;"/><rect x="1642.243" y="1466.132" width="71.647" height="75.23" style="fill:none;stroke:#000;stroke-width:2.61px;"/><rect x="1713.889" y="1390.902" width="74.718" height="53.735" style="fill:none;stroke:#000;stroke-width:2.61px;"/><rect x="1713.889" y="1444.637" width="74.718" height="59.108" style="fill:none;stroke:#000;stroke-width:2.61px;"/><rect x="1788.607" y="1390.902" width="74.718" height="53.735" style="fill:none;stroke:#000;stroke-width:2.61px;"/><rect x="1788.607" y="1444.637" width="74.718" height="59.108" style="fill:none;stroke:#000;stroke-width:2.61px;"/><rect x="1863.328" y="1390.902" width="68.576" height="53.735" style="fill:none;stroke:#000;stroke-width:2.61px;"/><rect x="1863.328" y="1444.637" width="54.247" height="59.108" style="fill:none;stroke:#000;stroke-width:2.61px;"/><rect x="1917.575" y="1444.637" width="80.97" height="59.108" style="fill:none;stroke:#000;stroke-width:2.61px;"/><rect x="1931.903" y="1390.902" width="66.641" height="53.735" style="fill:none;stroke:#000;stroke-width:2.61px;"/><g><rect x="1863.327" y="1284.45" width="68.576" height="54.248" style="fill:none;stroke:#000;stroke-width:2.62px;"/></g><rect x="1863.328" y="1230.206" width="68.576" height="54.247" style="fill:none;stroke:#000;stroke-width:2.61px;"/><rect x="1931.903" y="1230.206" width="66.641" height="54.247" style="fill:none;stroke:#000;stroke-width:2.61px;"/><rect x="1788.607" y="1230.206" width="74.718" height="54.247" style="fill:none;stroke:#000;stroke-width:2.61px;"/><g><rect x="1788.608" y="1284.453" width="74.719" height="54.247" style="fill:none;stroke:#000;stroke-width:2.62px;"/></g><rect x="1722.079" y="1284.453" width="66.531" height="54.247" style="fill:none;stroke:#000;stroke-width:2.61px;"/><rect x="1722.079" y="1230.206" width="66.531" height="54.247" style="fill:none;stroke:#000;stroke-width:2.61px;"/><rect x="1647.361" y="1230.206" width="74.718" height="108.494" style="fill:none;stroke:#000;stroke-width:2.61px;"/><rect x="1509.183" y="1393.97" width="67.555" height="72.158" style="fill:none;stroke:#000;stroke-width:2.61px;"/><rect x="1509.183" y="1466.132" width="67.555" height="75.23" style="fill:none;stroke:#000;stroke-width:2.61px;"/><rect x="1430.371" y="1390.902" width="78.813" height="112.846" style="fill:none;stroke:#000;stroke-width:2.61px;"/><rect x="1364.863" y="1393.97" width="65.508" height="109.775" style="fill:none;stroke:#000;stroke-width:2.61px;"/><rect x="1576.735" y="1226.111" width="70.623" height="112.588" style="fill:none;stroke:#000;stroke-width:2.61px;"/><rect x="1509.183" y="1226.111" width="67.555" height="112.588" style="fill:none;stroke:#000;stroke-width:2.61px;"/><rect x="1430.371" y="1226.111" width="78.813" height="112.588" style="fill:none;stroke:#000;stroke-width:2.61px;"/><rect x="1364.863" y="1226.111" width="65.508" height="112.588" style="fill:none;stroke:#000;stroke-width:2.61px;"/><rect x="1290.145" y="1226.111" width="74.718" height="112.588" style="fill:none;stroke:#000;stroke-width:2.61px;"/><rect x="1221.57" y="1226.111" width="68.576" height="56.294" style="fill:none;stroke:#000;stroke-width:2.61px;"/><rect x="1221.57" y="1282.405" width="68.576" height="56.294" style="fill:none;stroke:#000;stroke-width:2.61px;"/><rect x="1290.145" y="1398.065" width="74.718" height="105.426" style="fill:none;stroke:#000;stroke-width:2.61px;"/><rect x="1221.57" y="1398.065" width="68.576" height="105.426" style="fill:none;stroke:#000;stroke-width:2.61px;"/><rect x="1146.849" y="1398.065" width="74.718" height="105.426" style="fill:none;stroke:#000;stroke-width:2.61px;"/><rect x="1082.368" y="1398.065" width="64.484" height="105.426" style="fill:none;stroke:#000;stroke-width:2.61px;"/><rect x="1146.849" y="1224.575" width="64.484" height="114.124" style="fill:none;stroke:#000;stroke-width:2.61px;"/><rect x="1082.368" y="1224.575" width="64.484" height="114.124" style="fill:none;stroke:#000;stroke-width:2.61px;"/><rect x="1003.731" y="1398.065" width="78.637" height="105.426" style="fill:none;stroke:#000;stroke-width:2.61px;"/><rect x="939.247" y="1398.065" width="64.484" height="105.426" style="fill:none;stroke:#000;stroke-width:2.61px;"/><rect x="858.391" y="1398.065" width="80.86" height="105.426" style="fill:none;stroke:#000;stroke-width:2.61px;"/><rect x="929.014" y="1183.634" width="74.718" height="155.066" style="fill:none;stroke:#000;stroke-width:2.61px;"/><rect x="858.391" y="1183.634" width="70.623" height="155.066" style="fill:none;stroke:#000;stroke-width:2.61px;"/><rect x="791.859" y="1261.168" width="66.531" height="77.535" style="fill:none;stroke:#000;stroke-width:2.61px;"/><rect x="791.859" y="1183.634" width="66.531" height="77.535" style="fill:none;stroke:#000;stroke-width:2.61px;"/><rect x="722.26" y="1183.634" width="69.599" height="77.535" style="fill:none;stroke:#000;stroke-width:2.61px;"/><rect x="722.26" y="1261.168" width="69.599" height="77.535" style="fill:none;stroke:#000;stroke-width:2.61px;"/><rect x="645.495" y="1261.168" width="76.765" height="77.535" style="fill:none;stroke:#000;stroke-width:2.61px;"/><rect x="500.151" y="1261.168" width="145.344" height="77.535" style="fill:none;stroke:#000;stroke-width:2.61px;"/><rect x="583.059" y="1183.634" width="139.202" height="77.535" style="fill:none;stroke:#000;stroke-width:2.61px;"/><rect x="500.151" y="1183.634" width="82.907" height="77.535" style="fill:none;stroke:#000;stroke-width:2.61px;"/><rect x="791.859" y="1396.017" width="65.508" height="107.47" style="fill:none;stroke:#000;stroke-width:2.61px;"/><rect x="722.26" y="1396.017" width="69.599" height="107.47" style="fill:none;stroke:#000;stroke-width:2.61px;"/><rect x="645.495" y="1396.017" width="76.765" height="62.436" style="fill:none;stroke:#000;stroke-width:2.61px;"/><rect x="645.495" y="1458.454" width="76.765" height="82.907" style="fill:none;stroke:#000;stroke-width:2.61px;"/><rect x="583.059" y="1396.017" width="62.436" height="145.344" style="fill:none;stroke:#000;stroke-width:2.61px;"/><rect x="504.789" y="1396.017" width="78.269" height="62.436" style="fill:none;stroke:#000;stroke-width:2.61px;"/><rect x="504.789" y="1458.454" width="78.269" height="82.907" style="fill:none;stroke:#000;stroke-width:2.61px;"/><rect x="427" y="1396.017" width="77.789" height="103.89" style="fill:none;stroke:#000;stroke-width:2.61px;"/><rect x="286.775" y="1396.017" width="140.225" height="103.89" style="fill:none;stroke:#000;stroke-width:2.61px;"/><rect x="226.386" y="1447.962" width="60.389" height="51.945" style="fill:none;stroke:#000;stroke-width:2.61px;"/><rect x="226.386" y="1396.017" width="60.389" height="51.945" style="fill:none;stroke:#000;stroke-width:2.61px;"/><rect x="226.386" y="1339.723" width="83.931" height="56.294" style="fill:none;stroke:#000;stroke-width:2.61px;"/><rect x="226.386" y="1197.45" width="130.5" height="142.273" style="fill:none;stroke:#000;stroke-width:2.61px;"/><rect x="356.886" y="1197.45" width="70.111" height="45.037" style="fill:none;stroke:#000;stroke-width:2.61px;"/><rect x="427" y="1197.45" width="76.765" height="80.86" style="fill:none;stroke:#000;stroke-width:2.61px;"/><rect x="356.886" y="1242.487" width="70.111" height="97.236" style="fill:none;stroke:#000;stroke-width:2.61px;"/><rect x="427" y="1278.31" width="76.765" height="61.413" style="fill:none;stroke:#000;stroke-width:2.61px;"/><path d="M2094.694,679.548l92.118,0l0,-60.389l66.073,0l0,164.782l-158.19,0l0,-104.393Z" style="fill:none;stroke:#000;stroke-width:2.61px;"/><rect x="1931.903" y="1284.453" width="66.641" height="54.247" style="fill:none;stroke:#000;stroke-width:2.61px;"/><rect x="2453.056" y="777.299" width="128.965" height="124.361" style="fill:none;stroke:#000;stroke-width:2.61px;"/><rect x="2582.021" y="810.566" width="69.599" height="91.094" style="fill:none;stroke:#000;stroke-width:2.61px;"/><rect x="2453.056" y="901.66" width="98.26" height="117.707" style="fill:none;stroke:#000;stroke-width:2.61px;"/><rect x="2551.316" y="901.66" width="100.307" height="117.707" style="fill:none;stroke:#000;stroke-width:2.61px;"/><rect x="2453.056" y="1019.367" width="64.484" height="128.965" style="fill:none;stroke:#000;stroke-width:2.61px;"/><rect x="2517.537" y="1019.367" width="134.083" height="128.965" style="fill:none;stroke:#000;stroke-width:2.61px;"/><rect x="2453.056" y="1148.331" width="198.567" height="121.802" style="fill:none;stroke:#000;stroke-width:2.61px;"/><rect x="2694.609" y="1270.133" width="79.836" height="58.342" style="fill:none;stroke:#000;stroke-width:2.61px;"/><rect x="2694.609" y="1069.519" width="79.836" height="200.614" style="fill:none;stroke:#000;stroke-width:2.61px;"/><rect x="2694.609" y="1029.601" width="70.623" height="39.918" style="fill:none;stroke:#000;stroke-width:2.61px;"/><rect x="2694.609" y="974.33" width="70.623" height="55.271" style="fill:none;stroke:#000;stroke-width:2.61px;"/><rect x="2694.609" y="937.483" width="70.623" height="36.847" style="fill:none;stroke:#000;stroke-width:2.61px;"/><rect x="2694.609" y="886.307" width="70.623" height="51.176" style="fill:none;stroke:#000;stroke-width:2.61px;"/><rect x="2774.445" y="1270.133" width="233.367" height="68.576" style="fill:none;stroke:#000;stroke-width:2.61px;"/><rect x="3007.812" y="1270.133" width="54.247" height="58.342" style="fill:none;stroke:#000;stroke-width:2.61px;"/><rect x="3007.812" y="1206.673" width="54.247" height="63.46" style="fill:none;stroke:#000;stroke-width:2.61px;"/><rect x="2694.609" y="783.953" width="70.623" height="102.355" style="fill:none;stroke:#000;stroke-width:2.61px;"/><rect x="3018.049" y="1145.26" width="44.013" height="61.413" style="fill:none;stroke:#000;stroke-width:2.61px;"/><rect x="2694.609" y="711.283" width="35.311" height="72.67" style="fill:none;stroke:#000;stroke-width:2.61px;"/><rect x="2729.921" y="711.283" width="77.277" height="72.67" style="fill:none;stroke:#000;stroke-width:2.61px;"/><rect x="2807.198" y="711.283" width="54.247" height="72.67" style="fill:none;stroke:#000;stroke-width:2.61px;"/><rect x="2861.448" y="711.283" width="51.176" height="72.67" style="fill:none;stroke:#000;stroke-width:2.61px;"/><rect x="2912.623" y="711.283" width="56.294" height="72.67" style="fill:none;stroke:#000;stroke-width:2.61px;"/><rect x="3011.907" y="1085.898" width="50.152" height="59.365" style="fill:none;stroke:#000;stroke-width:2.61px;"/><rect x="3011.907" y="1027.556" width="50.152" height="58.342" style="fill:none;stroke:#000;stroke-width:2.61px;"/><rect x="3011.907" y="962.049" width="50.152" height="65.508" style="fill:none;stroke:#000;stroke-width:2.61px;"/><rect x="3011.907" y="902.684" width="50.152" height="59.365" style="fill:none;stroke:#000;stroke-width:2.61px;"/><rect x="3018.049" y="842.295" width="44.013" height="60.389" style="fill:none;stroke:#000;stroke-width:2.61px;"/><rect x="3018.049" y="772.695" width="44.013" height="69.599" style="fill:none;stroke:#000;stroke-width:2.61px;"/><rect x="2965.847" y="712.306" width="52.199" height="71.647" style="fill:none;stroke:#000;stroke-width:2.61px;"/><rect x="3018.049" y="712.306" width="44.013" height="60.389" style="fill:none;stroke:#000;stroke-width:2.61px;"/><rect x="3018.049" y="613.535" width="53.223" height="46.572" style="fill:none;stroke:#000;stroke-width:2.61px;"/><rect x="3018.049" y="537.281" width="53.223" height="76.253" style="fill:none;stroke:#000;stroke-width:2.61px;"/><rect x="3071.272" y="537.281" width="60.389" height="38.128" style="fill:none;stroke:#000;stroke-width:2.61px;"/><rect x="3089.696" y="575.406" width="41.966" height="84.697" style="fill:none;stroke:#000;stroke-width:2.61px;"/><rect x="3089.696" y="660.104" width="41.966" height="52.711" style="fill:none;stroke:#000;stroke-width:2.61px;"/><rect x="3089.696" y="712.818" width="41.966" height="62.436" style="fill:none;stroke:#000;stroke-width:2.61px;"/><rect x="3089.696" y="775.255" width="41.966" height="64.484" style="fill:none;stroke:#000;stroke-width:2.61px;"/><rect x="3089.696" y="839.735" width="41.966" height="57.318" style="fill:none;stroke:#000;stroke-width:2.61px;"/><rect x="3089.696" y="897.053" width="41.966" height="62.436" style="fill:none;stroke:#000;stroke-width:2.61px;"/><rect x="3089.696" y="959.49" width="41.966" height="61.925" style="fill:none;stroke:#000;stroke-width:2.61px;"/><rect x="3089.696" y="1021.414" width="41.966" height="64.484" style="fill:none;stroke:#000;stroke-width:2.61px;"/><rect x="3089.696" y="1085.898" width="41.966" height="53.735" style="fill:none;stroke:#000;stroke-width:2.61px;"/><rect x="3089.696" y="1139.633" width="41.966" height="64.484" style="fill:none;stroke:#000;stroke-width:2.61px;"/><rect x="3089.696" y="1204.114" width="41.966" height="61.413" style="fill:none;stroke:#000;stroke-width:2.61px;"/><rect x="3089.696" y="1265.527" width="41.966" height="63.46" style="fill:none;stroke:#000;stroke-width:2.61px;"/><g><rect x="3089.696" y="1328.987" width="41.966" height="58.343" style="fill:none;stroke:#000;stroke-width:2.62px;"/></g><rect x="2700.751" y="1387.328" width="73.694" height="128.453" style="fill:none;stroke:#000;stroke-width:2.61px;"/><rect x="2644.457" y="1418.803" width="56.294" height="99.026" style="fill:none;stroke:#000;stroke-width:2.61px;"/><rect x="2028.474" y="1387.328" width="41.966" height="95.701" style="fill:none;stroke:#000;stroke-width:2.61px;"/><rect x="2212.712" y="1387.328" width="38.894" height="95.701" style="fill:none;stroke:#000;stroke-width:2.61px;"/><rect x="2114.452" y="1286.509" width="36.847" height="36.847" style="fill:none;stroke:#000;stroke-width:2.61px;"/><rect x="2195.312" y="863.789" width="50.152" height="358.24" style="fill:none;stroke:#000;stroke-width:2.61px;"/><rect x="2092.958" y="1136.05" width="93.141" height="107.47" style="fill:none;stroke:#000;stroke-width:2.61px;"/><rect x="2092.958" y="1092.037" width="93.141" height="44.013" style="fill:none;stroke:#000;stroke-width:2.61px;"/><rect x="2092.958" y="1042.906" width="93.141" height="49.128" style="fill:none;stroke:#000;stroke-width:2.61px;"/><rect x="2092.958" y="985.588" width="66.531" height="57.318" style="fill:none;stroke:#000;stroke-width:2.61px;"/><rect x="2092.958" y="928.27" width="93.141" height="57.318" style="fill:none;stroke:#000;stroke-width:2.61px;"/><rect x="2092.958" y="880.165" width="93.141" height="48.108" style="fill:none;stroke:#000;stroke-width:2.61px;"/><rect x="2092.958" y="795.21" width="93.141" height="84.955" style="fill:none;stroke:#000;stroke-width:2.61px;"/><rect x="1998.545" y="719.981" width="53.471" height="75.23" style="fill:none;stroke:#000;stroke-width:2.61px;"/><rect x="1998.545" y="628.127" width="53.471" height="91.854" style="fill:none;stroke:#000;stroke-width:2.61px;"/><rect x="1998.545" y="533.698" width="53.471" height="28.661" style="fill:none;stroke:#000;stroke-width:2.61px;"/><rect x="1946.59" y="514.251" width="51.954" height="62.436" style="fill:none;stroke:#000;stroke-width:2.61px;"/><rect x="1887.225" y="514.251" width="59.365" height="62.436" style="fill:none;stroke:#000;stroke-width:2.61px;"/><rect x="1835.025" y="514.251" width="52.199" height="62.436" style="fill:none;stroke:#000;stroke-width:2.61px;"/><rect x="1782.826" y="514.251" width="52.199" height="62.436" style="fill:none;stroke:#000;stroke-width:2.61px;"/><rect x="1650.15" y="514.251" width="59.365" height="62.436" style="fill:none;stroke:#000;stroke-width:2.61px;"/><rect x="1596.926" y="514.251" width="53.223" height="62.436" style="fill:none;stroke:#000;stroke-width:2.61px;"/><rect x="1544.724" y="514.251" width="52.199" height="62.436" style="fill:none;stroke:#000;stroke-width:2.61px;"/><rect x="1487.406" y="514.251" width="57.318" height="62.436" style="fill:none;stroke:#000;stroke-width:2.61px;"/><rect x="1438.278" y="514.251" width="49.128" height="62.436" style="fill:none;stroke:#000;stroke-width:2.61px;"/><rect x="1998.545" y="449.767" width="49.753" height="64.484" style="fill:none;stroke:#000;stroke-width:2.61px;"/><rect x="1998.545" y="363.789" width="49.753" height="62.436" style="fill:none;stroke:#000;stroke-width:2.61px;"/><rect x="2460.784" y="718.445" width="83.931" height="48.108" style="fill:none;stroke:#000;stroke-width:2.61px;"/><g><rect x="3007.812" y="1387.329" width="123.849" height="62.947" style="fill:none;stroke:#000;stroke-width:2.62px;"/></g><rect x="2886.01" y="1398.074" width="121.802" height="117.707" style="fill:none;stroke:#000;stroke-width:2.61px;"/><rect x="3007.812" y="1450.277" width="39.918" height="65.508" style="fill:none;stroke:#000;stroke-width:2.61px;"/><rect x="3047.73" y="1450.277" width="83.931" height="65.508" style="fill:none;stroke:#000;stroke-width:2.61px;"/></g><g id="halls"><rect x="109.924" y="0" width="55.235" height="788.16" style="fill:#adffad;"/><rect x="122.671" y="240.058" width="1053.711" height="48.86" style="fill:#adffad;"/><rect x="1099.903" y="210.316" width="76.479" height="167.828" style="fill:#adffad;"/><rect x="2050.308" y="293.168" width="57.36" height="1096.2" style="fill:#adffad;"/><g><rect x="2094.921" y="288.92" width="601.21" height="55.235" style="fill:#adffad;"/></g><rect x="311.743" y="1342.632" width="2779.529" height="42.488" style="fill:#adffad;"/><rect x="3075.612" y="573.591" width="14.872" height="811.526" style="fill:#adffad;"/><rect x="2397.922" y="650.071" width="679.814" height="63.732" style="fill:#adffad;"/><rect x="2408.544" y="692.559" width="53.11" height="688.312" style="fill:#adffad;"/><rect x="2657.102" y="662.818" width="42.488" height="707.431" style="fill:#adffad;"/><rect x="1376.077" y="571.466" width="756.294" height="48.86" style="fill:#adffad;"/><rect x="1286.851" y="571.469" width="125.34" height="53.11" style="fill:#adffad;"/><g><rect x="1150.89" y="314.412" width="78.605" height="76.479" style="fill:#adffad;"/></g><g><path d="M1335.53,564.225l-45.082,21.585l-99.082,-206.941l45.082,-21.585l99.082,206.941Z" style="fill:#adffad;"/></g></g></g></svg>